{
  "accessors": [
    {
      "bufferView": 2,
      "componentType": 5126,
      "count": 12466,
      "max": [
        0.7502803802490234,
        0.8909555673599243,
        0.15359342098236084
      ],
      "min": [
        -0.7502803802490234,
        0.0006009340286254883,
        -0.15359342098236084
      ],
      "type": "VEC3"
    },
    {
      "bufferView": 2,
      "byteOffset": 149592,
      "componentType": 5126,
      "count": 12466,
      "max": [
        1.0,
        1.0,
        1.0
      ],
      "min": [
        -1.0,
        -1.0,
        -1.0
      ],
      "type": "VEC3"
    },
    {
      "bufferView": 3,
      "componentType": 5126,
      "count": 12466,
      "max": [
        0.9999314546585083,
        0.9999618530273438,
        1.0,
        1.0
      ],
      "min": [
        -0.9999995231628418,
        -0.9999997615814209,
        -0.9999899864196777,
        -1.0
      ],
      "type": "VEC4"
    },
    {
      "bufferView": 1,
      "componentType": 5126,
      "count": 12466,
      "max": [
        1.0,
        0.8620869517326355
      ],
      "min": [
        0.0,
        0.0
      ],
      "type": "VEC2"
    },
    {
      "bufferView": 0,
      "componentType": 5125,
      "count": 67116,
      "type": "SCALAR"
    },
    {
      "bufferView": 2,
      "byteOffset": 299184,
      "componentType": 5126,
      "count": 1813,
      "max": [
        0.5322126150131226,
        0.7818406224250793,
        0.012629825621843338
      ],
      "min": [
        -0.5322126150131226,
        0.5060053467750549,
        -0.01346888579428196
      ],
      "type": "VEC3"
    },
    {
      "bufferView": 2,
      "byteOffset": 320940,
      "componentType": 5126,
      "count": 1813,
      "max": [
        0.7897020578384399,
        1.0,
        0.9999999403953552
      ],
      "min": [
        -0.7897018194198608,
        -1.0,
        -0.9999999403953552
      ],
      "type": "VEC3"
    },
    {
      "bufferView": 3,
      "byteOffset": 199456,
      "componentType": 5126,
      "count": 1813,
      "max": [
        1.0,
        0.7897017598152161,
        0.004682718310505152,
        1.0
      ],
      "min": [
        0.6134740114212036,
        -0.7897018790245056,
        -0.004706548526883125,
        1.0
      ],
      "type": "VEC4"
    },
    {
      "bufferView": 1,
      "byteOffset": 99728,
      "componentType": 5126,
      "count": 1813,
      "max": [
        48.51416778564453,
        3.2847883701324463
      ],
      "min": [
        -47.51063537597656,
        -2.2755773067474365
      ],
      "type": "VEC2"
    },
    {
      "bufferView": 1,
      "byteOffset": 114232,
      "componentType": 5126,
      "count": 1813,
      "max": [
        48.51416778564453,
        3.2847883701324463
      ],
      "min": [
        -47.51063537597656,
        -2.2755773067474365
      ],
      "type": "VEC2"
    },
    {
      "bufferView": 0,
      "byteOffset": 268464,
      "componentType": 5125,
      "count": 10368,
      "type": "SCALAR"
    }
  ],
  "asset": {
    "extras": {
      "author": "UolterUait (https://sketchfab.com/UolterUait)",
      "license": "CC-BY-4.0 (http://creativecommons.org/licenses/by/4.0/)",
      "source": "https://sketchfab.com/3d-models/velvet-rope-and-metal-poles-486fd9f6db2a484fbb880576698e6078",
      "title": "Velvet Rope and Metal Poles"
    },
    "generator": "Sketchfab-14.49.0",
    "version": "2.0"
  },
  "bufferViews": [
    {
      "buffer": 0,
      "byteLength": 309936,
      "name": "floatBufferViews",
      "target": 34963
    },
    {
      "buffer": 0,
      "byteLength": 128736,
      "byteOffset": 309936,
      "byteStride": 8,
      "name": "floatBufferViews",
      "target": 34962
    },
    {
      "buffer": 0,
      "byteLength": 342696,
      "byteOffset": 438672,
      "byteStride": 12,
      "name": "floatBufferViews",
      "target": 34962
    },
    {
      "buffer": 0,
      "byteLength": 228464,
      "byteOffset": 781368,
      "byteStride": 16,
      "name": "floatBufferViews",
      "target": 34962
    }
  ],
  "buffers": [
    {
      "byteLength": 1009832,
      "uri": "scene.bin"
    }
  ],
  "images": [
    {
      "uri": "textures/Metal_Pole_normal.png"
    },
    {
      "uri": "textures/VelvetRope_baseColor.png"
    },
    {
      "uri": "textures/VelvetRope_normal.png"
    }
  ],
  "materials": [
    {
      "doubleSided": true,
      "name": "Metal_Pole",
      "normalTexture": {
        "index": 0
      },
      "pbrMetallicRoughness": {
        "baseColorFactor": [
          0.303198,
          0.303198,
          0.303198,
          1.0
        ],
        "roughnessFactor": 0.279528
      }
    },
    {
      "doubleSided": true,
      "name": "VelvetRope",
      "normalTexture": {
        "index": 2
      },
      "pbrMetallicRoughness": {
        "baseColorTexture": {
          "index": 1
        },
        "metallicFactor": 0.0,
        "roughnessFactor": 0.838583
      }
    }
  ],
  "meshes": [
    {
      "name": "Object_0",
      "primitives": [
        {
          "attributes": {
            "NORMAL": 1,
            "POSITION": 0,
            "TANGENT": 2,
            "TEXCOORD_0": 3
          },
          "indices": 4,
          "material": 0,
          "mode": 4
        }
      ]
    },
    {
      "name": "Object_1",
      "primitives": [
        {
          "attributes": {
            "NORMAL": 6,
            "POSITION": 5,
            "TANGENT": 7,
            "TEXCOORD_0": 8,
            "TEXCOORD_1": 9
          },
          "indices": 10,
          "material": 1,
          "mode": 4
        }
      ]
    }
  ],
  "nodes": [
    {
      "children": [
        1
      ],
      "matrix": [
        1.0,
        0.0,
        0.0,
        0.0,
        0.0,
        2.220446049250313e-16,
        -1.0,
        0.0,
        0.0,
        1.0,
        2.220446049250313e-16,
        0.0,
        0.0,
        0.0,
        0.0,
        1.0
      ],
      "name": "Sketchfab_model"
    },
    {
      "children": [
        2
      ],
      "name": "root"
    },
    {
      "children": [
        3,
        5
      ],
      "matrix": [
        1.0,
        0.0,
        0.0,
        0.0,
        0.0,
        2.220446049250313e-16,
        1.0,
        0.0,
        0.0,
        -1.0,
        2.220446049250313e-16,
        0.0,
        0.0,
        0.0,
        0.0,
        1.0
      ],
      "name": "GLTF_SceneRootNode"
    },
    {
      "children": [
        4
      ],
      "name": "MetalPoles_0"
    },
    {
      "mesh": 0,
      "name": "Object_4"
    },
    {
      "children": [
        6
      ],
      "name": "Rope_1"
    },
    {
      "mesh": 1,
      "name": "Object_6"
    }
  ],
  "samplers": [
    {
      "magFilter": 9729,
      "minFilter": 9987,
      "wrapS": 10497,
      "wrapT": 10497
    }
  ],
  "scene": 0,
  "scenes": [
    {
      "name": "Sketchfab_Scene",
      "nodes": [
        0
      ]
    }
  ],
  "textures": [
    {
      "sampler": 0,
      "source": 0
    },
    {
      "sampler": 0,
      "source": 1
    },
    {
      "sampler": 0,
      "source": 2
    }
  ]
}
